<svg xmlns="http://www.w3.org/2000/svg" width="1240" height="840" viewBox="0 0 1240 840" role="img" font-family="Segoe UI, Roboto, Helvetica, Arial, sans-serif">
<title>AaraMinds Brain — Persona, Agent and Skill Architecture</title>
<desc>Architecture map of the AaraMinds workspace. The Communication layer (instruction-os) holds 6 personas, 9 system modules, and 2 persona skills. The Engineering layer (skills-pack) holds 3 agents and 26 engineering skills across 6 domains.</desc>
<style>
text{font-family:'Segoe UI',Roboto,Helvetica,Arial,sans-serif;}
.h1{font-size:25px;font-weight:700;fill:#ffffff;}
.h2{font-size:13px;fill:#cbd5e1;}
.badge{font-size:12px;font-weight:600;fill:#e2e8f0;}
.strip{font-size:15px;font-weight:700;fill:#ffffff;}
.secL{font-size:11px;font-weight:700;fill:#4338ca;letter-spacing:1.4px;}
.secR{font-size:11px;font-weight:700;fill:#0f766e;letter-spacing:1.4px;}
.note{font-size:11px;fill:#64748b;}
.cname{font-size:12px;font-weight:600;fill:#1e293b;}
.crole{font-size:11px;fill:#64748b;}
.chip{font-size:11px;font-weight:500;fill:#334155;}
.aname{font-size:13px;font-weight:600;fill:#0f172a;}
.dname{font-size:12.5px;font-weight:600;fill:#1e293b;}
.cnt{font-size:11px;font-weight:700;fill:#0f766e;}
.leg{font-size:11.5px;font-weight:500;fill:#475569;}
.foot{font-size:11px;fill:#94a3b8;}
</style>

<rect x="0" y="0" width="1240" height="840" fill="#ffffff"/>

<rect x="0" y="0" width="1240" height="100" fill="#1e293b"/>
<text x="48" y="46" class="h1">AaraMinds Brain &#8212; Persona, Agent &amp; Skill Architecture</text>
<text x="48" y="73" class="h2">Hierarchy and orchestration map of the canonical workspace &#8212; instruction-os and skills-pack</text>
<rect x="1036" y="33" width="160" height="34" rx="6" fill="#334155"/>
<text x="1116" y="55" class="badge" text-anchor="middle">v1.0  &#183;  2026-05-25</text>

<line x1="620" y1="100" x2="320" y2="128" stroke="#cbd5e1" stroke-width="1.5"/>
<line x1="620" y1="100" x2="920" y2="128" stroke="#cbd5e1" stroke-width="1.5"/>

<path d="M40,174 L40,138 Q40,128 50,128 L590,128 Q600,128 600,138 L600,174 Z" fill="#4f46e5"/>
<text x="62" y="157" class="strip">instruction-os  &#8212;  Communication Layer</text>
<path d="M640,174 L640,138 Q640,128 650,128 L1190,128 Q1200,128 1200,138 L1200,174 Z" fill="#0d9488"/>
<text x="662" y="157" class="strip">skills-pack  &#8212;  Engineering Layer</text>

<text x="62" y="202" class="secL">PERSONAS  &#183;  6</text>
<text x="62" y="219" class="note">Role-based context blocks, composed from base + modules at load time</text>

<rect x="62" y="230" width="256" height="56" rx="6" fill="#eef2ff" stroke="#c7d2fe"/>
<text x="76" y="255" class="cname">Executive Narrative Advisor v1.0</text>
<text x="76" y="273" class="crole">VP-ready narratives &amp; decision memos</text>
<rect x="326" y="230" width="256" height="56" rx="6" fill="#eef2ff" stroke="#c7d2fe"/>
<text x="340" y="255" class="cname">AI Engineering Architect v1.2</text>
<text x="340" y="273" class="crole">AI architecture design &amp; review</text>
<rect x="62" y="296" width="256" height="56" rx="6" fill="#eef2ff" stroke="#c7d2fe"/>
<text x="76" y="321" class="cname">AI Business Strategist v1.1</text>
<text x="76" y="339" class="crole">Strategy, positioning &amp; decisions</text>
<rect x="326" y="296" width="256" height="56" rx="6" fill="#eef2ff" stroke="#c7d2fe"/>
<text x="340" y="321" class="cname">AI Agent Blueprint Advisor v1.1</text>
<text x="340" y="339" class="crole">Single-agent blueprint design</text>
<rect x="62" y="362" width="256" height="56" rx="6" fill="#eef2ff" stroke="#c7d2fe"/>
<text x="76" y="387" class="cname">Content Strategist v1.0</text>
<text x="76" y="405" class="crole">Thought leadership &amp; LinkedIn</text>
<rect x="326" y="362" width="256" height="56" rx="6" fill="#eef2ff" stroke="#c7d2fe"/>
<text x="340" y="387" class="cname">Project Planner v1.0</text>
<text x="340" y="405" class="crole">Delivery planning &amp; roadmaps</text>

<text x="62" y="446" class="secL">SYSTEM MODULES  &#183;  9</text>
<text x="62" y="463" class="note">Composable building blocks &#8212; personas load base plus the relevant modules</text>

<rect x="62" y="474" width="168" height="30" rx="5" fill="#f1f5f9" stroke="#e2e8f0"/>
<text x="74" y="493" class="chip">01 Layered Base</text>
<rect x="238" y="474" width="168" height="30" rx="5" fill="#f1f5f9" stroke="#e2e8f0"/>
<text x="250" y="493" class="chip">02 Visual Identity</text>
<rect x="414" y="474" width="168" height="30" rx="5" fill="#f1f5f9" stroke="#e2e8f0"/>
<text x="426" y="493" class="chip">03 Newsletter Editorial</text>
<rect x="62" y="512" width="168" height="30" rx="5" fill="#f1f5f9" stroke="#e2e8f0"/>
<text x="74" y="531" class="chip">04 Framework Creation</text>
<rect x="238" y="512" width="168" height="30" rx="5" fill="#f1f5f9" stroke="#e2e8f0"/>
<text x="250" y="531" class="chip">05 AI Systems Review</text>
<rect x="414" y="512" width="168" height="30" rx="5" fill="#f1f5f9" stroke="#e2e8f0"/>
<text x="426" y="531" class="chip">06 LinkedIn Post</text>
<rect x="62" y="550" width="168" height="30" rx="5" fill="#f1f5f9" stroke="#e2e8f0"/>
<text x="74" y="569" class="chip">07 Trend Scan</text>
<rect x="238" y="550" width="168" height="30" rx="5" fill="#f1f5f9" stroke="#e2e8f0"/>
<text x="250" y="569" class="chip">08 Agent Blueprint</text>
<rect x="414" y="550" width="168" height="30" rx="5" fill="#f1f5f9" stroke="#e2e8f0"/>
<text x="426" y="569" class="chip">09 Delivery Planning</text>

<text x="62" y="612" class="secL">PERSONA SKILLS  &#183;  2</text>
<text x="62" y="629" class="note">Personas repackaged as discoverable, auto-triggered Claude Skills</text>

<rect x="62" y="640" width="256" height="54" rx="6" fill="#e0e7ff" stroke="#a5b4fc"/>
<text x="76" y="664" class="cname">aaraminds-ai-engineering-architect</text>
<text x="76" y="682" class="crole">&#8594; AI Engineering Architect persona</text>
<rect x="326" y="640" width="256" height="54" rx="6" fill="#e0e7ff" stroke="#a5b4fc"/>
<text x="340" y="664" class="cname">aaraminds-content-strategist</text>
<text x="340" y="682" class="crole">&#8594; Content Strategist persona</text>

<text x="662" y="202" class="secR">AGENTS  &#183;  3</text>
<text x="662" y="219" class="note">Orchestration personas &#8212; defined in Claude subagent and GitHub Copilot formats</text>

<rect x="662" y="230" width="516" height="58" rx="6" fill="#f0fdfa" stroke="#99f6e4"/>
<text x="678" y="255" class="aname">aara-senior-microservices-architect</text>
<text x="678" y="274" class="crole">Orchestrates microservices design + Azure platform skills</text>
<rect x="662" y="296" width="516" height="58" rx="6" fill="#f0fdfa" stroke="#99f6e4"/>
<text x="678" y="321" class="aname">aara-mcp-server-builder</text>
<text x="678" y="340" class="crole">Orchestrates Go MCP server skills + PR review</text>
<rect x="662" y="362" width="516" height="58" rx="6" fill="#f0fdfa" stroke="#99f6e4"/>
<text x="678" y="387" class="aname">aara-azure-cost-reviewer</text>
<text x="678" y="406" class="crole">Orchestrates cost review, service mapping &amp; observability</text>

<text x="662" y="446" class="secR">ENGINEERING SKILLS  &#183;  26 IN 6 DOMAINS</text>
<text x="662" y="463" class="note">Native Claude Skills &#8212; the technical knowledge base agents draw on</text>

<rect x="662" y="474" width="516" height="36" rx="6" fill="#f8fafc" stroke="#e2e8f0"/>
<text x="680" y="497" class="dname">Microservices architecture &amp; design</text>
<rect x="1124" y="482" width="38" height="20" rx="10" fill="#ccfbf1" stroke="#5eead4"/>
<text x="1143" y="496" class="cnt" text-anchor="middle">8</text>
<rect x="662" y="518" width="516" height="36" rx="6" fill="#f8fafc" stroke="#e2e8f0"/>
<text x="680" y="541" class="dname">Azure platform engineering</text>
<rect x="1124" y="526" width="38" height="20" rx="10" fill="#ccfbf1" stroke="#5eead4"/>
<text x="1143" y="540" class="cnt" text-anchor="middle">5</text>
<rect x="662" y="562" width="516" height="36" rx="6" fill="#f8fafc" stroke="#e2e8f0"/>
<text x="680" y="585" class="dname">Go MCP server engineering</text>
<rect x="1124" y="570" width="38" height="20" rx="10" fill="#ccfbf1" stroke="#5eead4"/>
<text x="1143" y="584" class="cnt" text-anchor="middle">4</text>
<rect x="662" y="606" width="516" height="36" rx="6" fill="#f8fafc" stroke="#e2e8f0"/>
<text x="680" y="629" class="dname">AI / LLM application</text>
<rect x="1124" y="614" width="38" height="20" rx="10" fill="#ccfbf1" stroke="#5eead4"/>
<text x="1143" y="628" class="cnt" text-anchor="middle">2</text>
<rect x="662" y="650" width="516" height="36" rx="6" fill="#f8fafc" stroke="#e2e8f0"/>
<text x="680" y="673" class="dname">Codebase comprehension</text>
<rect x="1124" y="658" width="38" height="20" rx="10" fill="#ccfbf1" stroke="#5eead4"/>
<text x="1143" y="672" class="cnt" text-anchor="middle">2</text>
<rect x="662" y="694" width="516" height="36" rx="6" fill="#f8fafc" stroke="#e2e8f0"/>
<text x="680" y="717" class="dname">Implementation engineering</text>
<rect x="1124" y="702" width="38" height="20" rx="10" fill="#ccfbf1" stroke="#5eead4"/>
<text x="1143" y="716" class="cnt" text-anchor="middle">5</text>

<rect x="40" y="128" width="560" height="616" rx="10" fill="none" stroke="#e2e8f0" stroke-width="1.5"/>
<rect x="640" y="128" width="560" height="616" rx="10" fill="none" stroke="#e2e8f0" stroke-width="1.5"/>

<rect x="40" y="762" width="1160" height="40" rx="8" fill="#f8fafc" stroke="#e2e8f0"/>
<rect x="60" y="775" width="14" height="14" rx="3" fill="#eef2ff" stroke="#c7d2fe"/>
<text x="82" y="786" class="leg">Persona</text>
<rect x="172" y="775" width="14" height="14" rx="3" fill="#f1f5f9" stroke="#e2e8f0"/>
<text x="194" y="786" class="leg">System module</text>
<rect x="316" y="775" width="14" height="14" rx="3" fill="#e0e7ff" stroke="#a5b4fc"/>
<text x="338" y="786" class="leg">Persona skill</text>
<rect x="446" y="775" width="14" height="14" rx="3" fill="#f0fdfa" stroke="#99f6e4"/>
<text x="468" y="786" class="leg">Agent</text>
<rect x="544" y="775" width="14" height="14" rx="3" fill="#f8fafc" stroke="#5eead4"/>
<text x="566" y="786" class="leg">Skill domain</text>
<text x="690" y="786" class="leg" fill="#64748b">Relationships:  modules compose personas  &#183;  skills wrap personas  &#183;  agents orchestrate skills</text>

<text x="48" y="822" class="foot">AaraMinds workspace governance  &#183;  Source: instruction-os/ and skills-pack/  &#183;  Generated 2026-05-25</text>
<text x="48" y="836" class="foot">Current-state note: the two layers have no runtime link &#8212; no agent loads a persona, and no persona invokes an engineering skill.</text>
</svg>
