<svg xmlns="http://www.w3.org/2000/svg" viewBox="0 0 1600 1080" font-family="-apple-system, BlinkMacSystemFont, 'Segoe UI', Roboto, sans-serif">
  <!-- Background -->
  <rect width="1600" height="1080" fill="#fafafa"/>

  <!-- Title -->
  <text x="800" y="40" text-anchor="middle" font-size="22" font-weight="700" fill="#1f2937">TokenOptimizer — Enterprise AI Architecture</text>
  <text x="800" y="62" text-anchor="middle" font-size="13" fill="#6b7280">Orchestrator + Six Domain Specialists · LangGraph · MCP · Azure</text>

  <!-- Layer 1: User Channels -->
  <g>
    <rect x="40" y="95" width="200" height="140" rx="8" fill="#fef3c7" stroke="#d97706" stroke-width="1.5"/>
    <text x="55" y="118" font-size="11" font-weight="700" fill="#92400e">1. USER CHANNELS</text>
    <rect x="60" y="135" width="160" height="40" rx="6" fill="#fffbeb" stroke="#d97706"/>
    <text x="140" y="160" text-anchor="middle" font-size="12" fill="#92400e">Microsoft Teams</text>
    <rect x="60" y="185" width="160" height="40" rx="6" fill="#fffbeb" stroke="#d97706"/>
    <text x="140" y="210" text-anchor="middle" font-size="12" fill="#92400e">Web Client</text>
  </g>

  <!-- Layer 2: Copilot Experience -->
  <g>
    <rect x="270" y="95" width="200" height="140" rx="8" fill="#e0e7ff" stroke="#4f46e5" stroke-width="1.5"/>
    <text x="285" y="118" font-size="11" font-weight="700" fill="#312e81">2. COPILOT EXPERIENCE</text>
    <rect x="290" y="135" width="160" height="40" rx="6" fill="#eef2ff" stroke="#4f46e5"/>
    <text x="370" y="160" text-anchor="middle" font-size="12" fill="#312e81">Microsoft Copilot</text>
    <rect x="290" y="185" width="160" height="40" rx="6" fill="#eef2ff" stroke="#4f46e5"/>
    <text x="370" y="210" text-anchor="middle" font-size="12" fill="#312e81">Owner Review UI</text>
  </g>

  <!-- Layer 3: API and Access -->
  <g>
    <rect x="500" y="95" width="220" height="140" rx="8" fill="#dbeafe" stroke="#2563eb" stroke-width="1.5"/>
    <text x="515" y="118" font-size="11" font-weight="700" fill="#1e3a8a">3. API and ACCESS</text>
    <rect x="520" y="135" width="180" height="90" rx="6" fill="#eff6ff" stroke="#2563eb"/>
    <text x="610" y="158" text-anchor="middle" font-size="12" font-weight="600" fill="#1e3a8a">Azure APIM</text>
    <text x="610" y="178" text-anchor="middle" font-size="11" fill="#1e3a8a">Entra ID · RBAC</text>
    <text x="610" y="195" text-anchor="middle" font-size="11" fill="#1e3a8a">Key Vault</text>
    <text x="610" y="215" text-anchor="middle" font-size="11" fill="#1e3a8a">OAuth 2.1</text>
  </g>

  <!-- Layer 4: LangGraph Orchestration -->
  <g>
    <rect x="750" y="95" width="260" height="140" rx="8" fill="#bfdbfe" stroke="#1d4ed8" stroke-width="1.5"/>
    <text x="765" y="118" font-size="11" font-weight="700" fill="#1e3a8a">4. LANGGRAPH ORCHESTRATION</text>
    <rect x="770" y="135" width="220" height="90" rx="6" fill="#dbeafe" stroke="#1d4ed8"/>
    <text x="880" y="158" text-anchor="middle" font-size="12" font-weight="600" fill="#1e3a8a">LangGraph Orchestrator</text>
    <text x="880" y="178" text-anchor="middle" font-size="11" fill="#1e3a8a">State Store</text>
    <text x="880" y="195" text-anchor="middle" font-size="11" fill="#1e3a8a">Human Review Queue</text>
    <text x="880" y="215" text-anchor="middle" font-size="11" fill="#1e3a8a">Retry · Loop Control</text>
  </g>

  <!-- Layer 5: AI Agent Layer (full width) -->
  <g>
    <rect x="40" y="270" width="1180" height="280" rx="8" fill="#fecaca" stroke="#dc2626" stroke-width="1.5"/>
    <text x="55" y="293" font-size="11" font-weight="700" fill="#7f1d1d">5. AI AGENT LAYER · Multi-Agent (Orchestrator + Six Specialists)</text>

    <!-- Planner -->
    <rect x="60" y="320" width="160" height="200" rx="8" fill="#fee2e2" stroke="#dc2626" stroke-width="2"/>
    <text x="140" y="350" text-anchor="middle" font-size="13" font-weight="700" fill="#7f1d1d">Planner Agent</text>
    <text x="140" y="368" text-anchor="middle" font-size="11" fill="#7f1d1d">(Orchestrator)</text>
    <line x1="80" y1="378" x2="200" y2="378" stroke="#dc2626" stroke-width="0.5"/>
    <text x="140" y="398" text-anchor="middle" font-size="10" fill="#7f1d1d">Ingest traces</text>
    <text x="140" y="415" text-anchor="middle" font-size="10" fill="#7f1d1d">Route to specialists</text>
    <text x="140" y="432" text-anchor="middle" font-size="10" fill="#7f1d1d">Fan-out coordination</text>
    <text x="140" y="465" text-anchor="middle" font-size="11" font-style="italic" fill="#9f1239">Pattern:</text>
    <text x="140" y="481" text-anchor="middle" font-size="10" fill="#9f1239">orchestrator-specialist</text>
    <text x="140" y="498" text-anchor="middle" font-size="10" fill="#9f1239">+ fan-out/fan-in</text>

    <!-- Six specialists in 3x2 grid -->
    <g font-size="11">
      <rect x="260" y="330" width="180" height="60" rx="6" fill="#fef2f2" stroke="#dc2626"/>
      <text x="350" y="354" text-anchor="middle" font-weight="600" fill="#7f1d1d">Prompt Analyzer</text>
      <text x="350" y="372" text-anchor="middle" font-size="9" fill="#9f1239">redundancy · verbosity</text>

      <rect x="460" y="330" width="180" height="60" rx="6" fill="#fef2f2" stroke="#dc2626"/>
      <text x="550" y="354" text-anchor="middle" font-weight="600" fill="#7f1d1d">Context Pruner</text>
      <text x="550" y="372" text-anchor="middle" font-size="9" fill="#9f1239">unused-window items</text>

      <rect x="660" y="330" width="180" height="60" rx="6" fill="#fef2f2" stroke="#dc2626"/>
      <text x="750" y="354" text-anchor="middle" font-weight="600" fill="#7f1d1d">Memory Compressor</text>
      <text x="750" y="372" text-anchor="middle" font-size="9" fill="#9f1239">unsummarized growth</text>

      <rect x="260" y="410" width="180" height="60" rx="6" fill="#fef2f2" stroke="#dc2626"/>
      <text x="350" y="434" text-anchor="middle" font-weight="600" fill="#7f1d1d">RAG Optimizer</text>
      <text x="350" y="452" text-anchor="middle" font-size="9" fill="#9f1239">chunk re-ranking</text>

      <rect x="460" y="410" width="180" height="60" rx="6" fill="#fef2f2" stroke="#dc2626"/>
      <text x="550" y="434" text-anchor="middle" font-weight="600" fill="#7f1d1d">Tool Output Truncator</text>
      <text x="550" y="452" text-anchor="middle" font-size="9" fill="#9f1239">unconsumed response</text>

      <rect x="660" y="410" width="180" height="60" rx="6" fill="#fef2f2" stroke="#dc2626"/>
      <text x="750" y="434" text-anchor="middle" font-weight="600" fill="#7f1d1d">Inter-Agent Compressor</text>
      <text x="750" y="452" text-anchor="middle" font-size="9" fill="#9f1239">message payloads</text>
    </g>

    <!-- Reviewer -->
    <rect x="880" y="320" width="320" height="200" rx="8" fill="#fee2e2" stroke="#dc2626" stroke-width="2"/>
    <text x="1040" y="350" text-anchor="middle" font-size="13" font-weight="700" fill="#7f1d1d">Reviewer Agent</text>
    <text x="1040" y="368" text-anchor="middle" font-size="11" fill="#7f1d1d">(Fan-in · Rank · Score)</text>
    <line x1="900" y1="378" x2="1180" y2="378" stroke="#dc2626" stroke-width="0.5"/>
    <text x="1040" y="398" text-anchor="middle" font-size="11" fill="#7f1d1d">Aggregate specialist findings</text>
    <text x="1040" y="416" text-anchor="middle" font-size="11" fill="#7f1d1d">Deduplicate cross-domain</text>
    <text x="1040" y="434" text-anchor="middle" font-size="11" fill="#7f1d1d">Rank by impact/risk ratio</text>
    <text x="1040" y="452" text-anchor="middle" font-size="11" fill="#7f1d1d">Score against golden set</text>
    <text x="1040" y="470" text-anchor="middle" font-size="11" fill="#7f1d1d">Surface for owner review</text>
    <text x="1040" y="495" text-anchor="middle" font-size="10" font-style="italic" fill="#9f1239">Output: ranked recommendations</text>
    <text x="1040" y="510" text-anchor="middle" font-size="10" font-style="italic" fill="#9f1239">→ draft PRs in GitHub</text>

    <!-- Fan-out arrows from Planner -->
    <g stroke="#dc2626" stroke-width="1.5" fill="none" marker-end="url(#arr-red)">
      <path d="M 220 360 L 260 360"/>
      <path d="M 220 380 Q 240 380 240 360 L 260 360" stroke-dasharray="2 2"/>
      <path d="M 220 400 L 460 360" stroke-dasharray="0"/>
      <path d="M 220 420 L 660 360" stroke-dasharray="0"/>
      <path d="M 220 440 L 260 440"/>
      <path d="M 220 460 L 460 440"/>
      <path d="M 220 480 L 660 440"/>
    </g>

    <!-- Fan-in arrows to Reviewer -->
    <g stroke="#dc2626" stroke-width="1.5" fill="none" marker-end="url(#arr-red)">
      <path d="M 440 360 L 880 380"/>
      <path d="M 640 360 L 880 395"/>
      <path d="M 840 360 L 880 380"/>
      <path d="M 440 440 L 880 440"/>
      <path d="M 640 440 L 880 450"/>
      <path d="M 840 440 L 880 460"/>
    </g>
  </g>

  <!-- Layer 6: MCP Gateway -->
  <g>
    <rect x="40" y="580" width="580" height="180" rx="8" fill="#d1fae5" stroke="#059669" stroke-width="1.5"/>
    <text x="55" y="603" font-size="11" font-weight="700" fill="#064e3b">6. MCP GATEWAY and SERVERS</text>

    <rect x="60" y="620" width="140" height="120" rx="8" fill="#a7f3d0" stroke="#059669" stroke-width="2"/>
    <text x="130" y="650" text-anchor="middle" font-size="12" font-weight="700" fill="#064e3b">MCP Gateway</text>
    <line x1="80" y1="660" x2="180" y2="660" stroke="#059669" stroke-width="0.5"/>
    <text x="130" y="678" text-anchor="middle" font-size="10" fill="#064e3b">Single entry point</text>
    <text x="130" y="694" text-anchor="middle" font-size="10" fill="#064e3b">AuthN · AuthZ</text>
    <text x="130" y="710" text-anchor="middle" font-size="10" fill="#064e3b">Tool allowlist</text>
    <text x="130" y="726" text-anchor="middle" font-size="10" fill="#064e3b">Request tracing</text>

    <g font-size="11">
      <rect x="220" y="620" width="180" height="35" rx="6" fill="#ecfdf5" stroke="#059669"/>
      <text x="310" y="643" text-anchor="middle" fill="#064e3b">LangSmith MCP (RO)</text>

      <rect x="220" y="663" width="180" height="35" rx="6" fill="#ecfdf5" stroke="#059669"/>
      <text x="310" y="686" text-anchor="middle" fill="#064e3b">Langfuse MCP (RO)</text>

      <rect x="220" y="706" width="180" height="35" rx="6" fill="#ecfdf5" stroke="#059669"/>
      <text x="310" y="729" text-anchor="middle" fill="#064e3b">Braintrust MCP</text>

      <rect x="420" y="620" width="180" height="35" rx="6" fill="#ecfdf5" stroke="#059669"/>
      <text x="510" y="643" text-anchor="middle" fill="#064e3b">GitHub MCP (draft PR)</text>

      <rect x="420" y="663" width="180" height="35" rx="6" fill="#ecfdf5" stroke="#059669"/>
      <text x="510" y="686" text-anchor="middle" fill="#064e3b">Slack MCP</text>

      <rect x="420" y="706" width="180" height="35" rx="6" fill="#ecfdf5" stroke="#059669"/>
      <text x="510" y="729" text-anchor="middle" fill="#064e3b">OpenAPI Connector</text>
    </g>
  </g>

  <!-- Layer 7: Data and Knowledge -->
  <g>
    <rect x="640" y="580" width="580" height="180" rx="8" fill="#fde68a" stroke="#d97706" stroke-width="1.5"/>
    <text x="655" y="603" font-size="11" font-weight="700" fill="#78350f">7. DATA and KNOWLEDGE</text>

    <rect x="660" y="620" width="240" height="60" rx="6" fill="#fef3c7" stroke="#d97706"/>
    <text x="780" y="645" text-anchor="middle" font-size="12" font-weight="600" fill="#78350f">Azure OpenAI Gateway</text>
    <text x="780" y="665" text-anchor="middle" font-size="10" fill="#78350f">Claude (workhorse) · Haiku (routing)</text>

    <rect x="920" y="620" width="280" height="60" rx="6" fill="#fef3c7" stroke="#d97706"/>
    <text x="1060" y="645" text-anchor="middle" font-size="12" font-weight="600" fill="#78350f">pgvector · Postgres · Redis</text>
    <text x="1060" y="665" text-anchor="middle" font-size="10" fill="#78350f">Pattern store · Recommendation history · Cache</text>

    <rect x="660" y="690" width="540" height="50" rx="6" fill="#fef3c7" stroke="#d97706"/>
    <text x="930" y="715" text-anchor="middle" font-size="12" font-weight="600" fill="#78350f">Azure Data Lake Storage Gen2 — Trace Retention</text>
    <text x="930" y="732" text-anchor="middle" font-size="10" fill="#78350f">PII-redacted before write · Sample-and-archive policy</text>
  </g>

  <!-- Cross-cutting band: Security and Governance (right vertical) -->
  <g>
    <rect x="1240" y="95" width="320" height="665" rx="8" fill="#f3f4f6" stroke="#6b7280" stroke-width="1.5"/>
    <text x="1255" y="118" font-size="11" font-weight="700" fill="#374151">CROSS-CUTTING · SECURITY and GOVERNANCE</text>

    <g font-size="11" fill="#374151">
      <rect x="1260" y="135" width="280" height="60" rx="6" fill="#ffffff" stroke="#6b7280"/>
      <text x="1275" y="158" font-weight="600">Identity and Access</text>
      <text x="1275" y="178" font-size="10">Entra ID · RBAC policies · OAuth 2.1</text>
      <text x="1275" y="192" font-size="10">Session-scoped agent tokens</text>

      <rect x="1260" y="205" width="280" height="60" rx="6" fill="#ffffff" stroke="#6b7280"/>
      <text x="1275" y="228" font-weight="600">Secrets and Keys</text>
      <text x="1275" y="248" font-size="10">Azure Key Vault · Rotation policy</text>
      <text x="1275" y="262" font-size="10">BYOK for customer data tenants</text>

      <rect x="1260" y="275" width="280" height="80" rx="6" fill="#ffffff" stroke="#6b7280"/>
      <text x="1275" y="298" font-weight="600">Input and Output Guardrails</text>
      <text x="1275" y="318" font-size="10">PII redaction pre-LLM (deterministic)</text>
      <text x="1275" y="332" font-size="10">JSON schema validation on outputs</text>
      <text x="1275" y="346" font-size="10">Recommendations cite trace IDs only</text>

      <rect x="1260" y="365" width="280" height="80" rx="6" fill="#ffffff" stroke="#6b7280"/>
      <text x="1275" y="388" font-weight="600">Tool-Call Controls</text>
      <text x="1275" y="408" font-size="10">Allowlist per MCP server</text>
      <text x="1275" y="422" font-size="10">No write to production code paths</text>
      <text x="1275" y="436" font-size="10">Draft-PR pattern enforces human merge</text>

      <rect x="1260" y="455" width="280" height="80" rx="6" fill="#ffffff" stroke="#6b7280"/>
      <text x="1275" y="478" font-weight="600">Human-in-Loop Gates</text>
      <text x="1275" y="498" font-size="10">Owner approval per recommendation</text>
      <text x="1275" y="512" font-size="10">Senior review above risk threshold</text>
      <text x="1275" y="526" font-size="10">Quarterly accuracy recalibration</text>

      <rect x="1260" y="545" width="280" height="80" rx="6" fill="#ffffff" stroke="#6b7280"/>
      <text x="1275" y="568" font-weight="600">Economic Discipline</text>
      <text x="1275" y="588" font-size="10">Self-funding within 60 days</text>
      <text x="1275" y="602" font-size="10">Optimizer's own cost telemetry</text>
      <text x="1275" y="616" font-size="10">Auto-pause if not net positive</text>

      <rect x="1260" y="635" width="280" height="70" rx="6" fill="#ffffff" stroke="#6b7280"/>
      <text x="1275" y="658" font-weight="600">Regulatory Alignment</text>
      <text x="1275" y="678" font-size="10">NIST AI RMF mapping</text>
      <text x="1275" y="692" font-size="10">EU AI Act risk-tier classification</text>
    </g>
  </g>

  <!-- Layer 9: Observability (bottom band) -->
  <g>
    <rect x="40" y="790" width="1520" height="120" rx="8" fill="#fed7aa" stroke="#ea580c" stroke-width="1.5"/>
    <text x="55" y="813" font-size="11" font-weight="700" fill="#7c2d12">9. OBSERVABILITY, AUDIT, EVALUATION (cross-cutting bottom layer)</text>

    <g font-size="11">
      <rect x="60" y="830" width="220" height="65" rx="6" fill="#ffedd5" stroke="#ea580c"/>
      <text x="170" y="853" text-anchor="middle" font-weight="600" fill="#7c2d12">Azure Monitor</text>
      <text x="170" y="872" text-anchor="middle" font-size="10" fill="#7c2d12">Operational metrics</text>
      <text x="170" y="886" text-anchor="middle" font-size="10" fill="#7c2d12">Cost alerts · SLO tracking</text>

      <rect x="300" y="830" width="280" height="65" rx="6" fill="#ffedd5" stroke="#ea580c"/>
      <text x="440" y="853" text-anchor="middle" font-weight="600" fill="#7c2d12">OpenTelemetry · LangSmith</text>
      <text x="440" y="872" text-anchor="middle" font-size="10" fill="#7c2d12">Distributed trace per request</text>
      <text x="440" y="886" text-anchor="middle" font-size="10" fill="#7c2d12">GenAI semantic conventions</text>

      <rect x="600" y="830" width="280" height="65" rx="6" fill="#ffedd5" stroke="#ea580c"/>
      <text x="740" y="853" text-anchor="middle" font-weight="600" fill="#7c2d12">Braintrust — Eval CI Gate</text>
      <text x="740" y="872" text-anchor="middle" font-size="10" fill="#7c2d12">Golden set · Trap cases · Scorers</text>
      <text x="740" y="886" text-anchor="middle" font-size="10" fill="#7c2d12">Blocks PR on regression</text>

      <rect x="900" y="830" width="280" height="65" rx="6" fill="#ffedd5" stroke="#ea580c"/>
      <text x="1040" y="853" text-anchor="middle" font-weight="600" fill="#7c2d12">Audit Logs — WORM</text>
      <text x="1040" y="872" text-anchor="middle" font-size="10" fill="#7c2d12">Immutable · Per-decision provenance</text>
      <text x="1040" y="886" text-anchor="middle" font-size="10" fill="#7c2d12">Compliance retention</text>

      <rect x="1200" y="830" width="340" height="65" rx="6" fill="#ffedd5" stroke="#ea580c"/>
      <text x="1370" y="853" text-anchor="middle" font-weight="600" fill="#7c2d12">Feedback Loop</text>
      <text x="1370" y="872" text-anchor="middle" font-size="10" fill="#7c2d12">Owner rejection → eval case</text>
      <text x="1370" y="886" text-anchor="middle" font-size="10" fill="#7c2d12">Accuracy regression → trap case</text>
    </g>
  </g>

  <!-- Edges: primary flow (channel → copilot → API → orchestration → agent) -->
  <g stroke="#4b5563" stroke-width="1.8" fill="none" marker-end="url(#arr-gray)">
    <path d="M 240 155 L 270 155"/>
    <path d="M 240 205 L 270 205"/>
    <path d="M 470 155 L 500 175"/>
    <path d="M 470 205 L 500 195"/>
    <path d="M 720 180 L 750 180"/>
    <path d="M 880 235 L 880 270 L 140 270 L 140 320"/>
  </g>

  <!-- Edge: Reviewer → MCP Gateway -->
  <g stroke="#4b5563" stroke-width="1.8" fill="none" marker-end="url(#arr-gray)">
    <path d="M 1040 520 L 1040 555 L 130 555 L 130 620"/>
  </g>

  <!-- Edges: specialists → Azure OpenAI (dashed, model access) -->
  <g stroke="#d97706" stroke-width="1.2" stroke-dasharray="4 3" fill="none" marker-end="url(#arr-amber)">
    <path d="M 550 470 L 550 540 L 780 540 L 780 620"/>
  </g>

  <!-- Edges: observability dotted up to all layers -->
  <g stroke="#ea580c" stroke-width="1" stroke-dasharray="2 3" fill="none">
    <path d="M 170 830 L 170 760"/>
    <path d="M 440 830 L 440 760"/>
    <path d="M 740 830 L 740 760"/>
    <path d="M 1040 830 L 1040 760"/>
  </g>

  <!-- Edges: security band dotted into all layers -->
  <g stroke="#6b7280" stroke-width="1" stroke-dasharray="2 3" fill="none">
    <path d="M 1240 175 L 1010 175"/>
    <path d="M 1240 400 L 1220 400"/>
    <path d="M 1240 660 L 1220 660"/>
  </g>

  <!-- Arrowhead definitions -->
  <defs>
    <marker id="arr-gray" markerWidth="10" markerHeight="10" refX="9" refY="3" orient="auto" markerUnits="strokeWidth">
      <path d="M0,0 L0,6 L9,3 z" fill="#4b5563"/>
    </marker>
    <marker id="arr-red" markerWidth="10" markerHeight="10" refX="9" refY="3" orient="auto" markerUnits="strokeWidth">
      <path d="M0,0 L0,6 L9,3 z" fill="#dc2626"/>
    </marker>
    <marker id="arr-amber" markerWidth="10" markerHeight="10" refX="9" refY="3" orient="auto" markerUnits="strokeWidth">
      <path d="M0,0 L0,6 L9,3 z" fill="#d97706"/>
    </marker>
  </defs>

  <!-- Legend -->
  <g font-size="10" fill="#4b5563">
    <text x="40" y="945" font-weight="600" fill="#1f2937">Legend</text>
    <line x1="100" y1="942" x2="140" y2="942" stroke="#4b5563" stroke-width="1.8" marker-end="url(#arr-gray)"/>
    <text x="148" y="945">Primary flow</text>

    <line x1="240" y1="942" x2="280" y2="942" stroke="#dc2626" stroke-width="1.8" marker-end="url(#arr-red)"/>
    <text x="288" y="945">Fan-out / fan-in</text>

    <line x1="400" y1="942" x2="440" y2="942" stroke="#d97706" stroke-width="1.2" stroke-dasharray="4 3" marker-end="url(#arr-amber)"/>
    <text x="448" y="945">Model access</text>

    <line x1="550" y1="942" x2="590" y2="942" stroke="#6b7280" stroke-width="1" stroke-dasharray="2 3"/>
    <text x="598" y="945">Cross-cutting policy</text>

    <line x1="730" y1="942" x2="770" y2="942" stroke="#ea580c" stroke-width="1" stroke-dasharray="2 3"/>
    <text x="778" y="945">Observability emit</text>
  </g>

  <text x="40" y="990" font-size="10" fill="#6b7280" font-style="italic">
    Pattern: orchestrator-specialist + fan-out/fan-in · Defense-in-depth with self-funding economic discipline · Read-only on production · Draft-PR for all changes
  </text>
  <text x="40" y="1008" font-size="10" fill="#6b7280" font-style="italic">
    Component count: 28 (excluding cross-cutting controls) · Soft-limit ceiling 30 per Tier 1 design rule · Specialists grouped to prevent agent-layer sprawl
  </text>

</svg>
